<svg width="1316" height="1126" xmlns="http://www.w3.org/2000/svg">

 <g>
  <title>Layer 1</title>
  <path id="svg_2" fill="#2597ed" d="m669.144,1.02771c-5.934,3.46484 -4.144,14.25929 -4.144,19.97229l0,51c0,5.91 -1.637,14.9205 2.514,19.7716c4.672,5.4594 16.058,3.2284 22.486,3.2284l54,0c6.251,0 16.312,1.8881 21.942,-1.1791c6.603,-3.5974 5.058,-13.5677 5.058,-19.8209l0,-52c0,-5.7141 1.611,-15.04822 -2.564,-19.68213c-4.31,-4.78345 -17.53,-2.31787 -23.436,-2.31787l-54,0c-5.939,0 -16.606,-2.0376 -21.856,1.02771m-245.1,112.71429c-7.237,2.95 -5.044,14.053 -5.044,20.258l0,52c0,5.615 -1.838,15.276 2.434,19.682c4.605,4.75 17.455,2.318 23.566,2.318l51,0c6.684,0 16.689,1.861 22.956,-0.603c7.24,-2.848 5.044,-14.281 5.044,-20.397l0,-51c0,-5.557 1.8,-15.084 -1.742,-19.772c-4.291,-5.678 -16.994,-3.228 -23.258,-3.228l-52,0c-6.729,0 -16.657,-1.825 -22.956,0.742m124,0c-7.237,2.949 -5.044,14.053 -5.044,20.258l0,51c0,5.488 -1.853,15.229 1.603,19.852c4.223,5.648 17.169,3.148 23.397,3.148l52,0c6.684,0 16.689,1.861 22.956,-0.603c7.24,-2.848 5.044,-14.281 5.044,-20.397l0,-51c0,-5.557 1.8,-15.084 -1.742,-19.772c-4.291,-5.678 -16.994,-3.228 -23.258,-3.228l-52,0c-6.729,0 -16.657,-1.825 -22.956,0.742m122.974,0c-7.542,2.997 -6.018,12.764 -6.018,19.258l0,52c0,5.843 -1.787,15.884 2.564,20.566c4.511,4.854 17.379,2.434 23.436,2.434l52,0c6.617,0 16.738,1.89 22.892,-0.742c6.945,-2.971 5.108,-14.27 5.108,-20.258l0,-50c0,-6.152 1.66,-15.655 -2.564,-20.772c-4.641,-5.622 -16.935,-3.228 -23.436,-3.228l-51,0c-6.784,0 -16.61,-1.789 -22.982,0.742m323.982,24.258c-33.409,54.137 -59.703,126.423 -18,185c-63.717,26.141 -136.383,17 -204,17l-368,0l-118,0c-17.239,0 -39.794,-3.828 -56,2.763c-17.271,7.024 -19,22.983 -19,39.237c0,31.804 3.759,63.793 10,95c14.805,74.035 49.542,151.146 115,193.308c35.392,22.796 77.814,34.657 119,41.611c174.806,29.517 376.514,-10.242 497.714,-147.919c31.112,-35.34 56.996,-74.916 78.036,-117c7.02,-14.028 13.71,-28.477 19.65,-43c2.85,-6.986 5.24,-18.057 10.3,-23.682c3.24,-3.598 9.96,-2.318 14.3,-2.318c11.44,0 22.77,-1.189 34,-3.449c36.55,-7.354 68.93,-27.979 90.28,-58.551c5.88,-8.422 16.32,-24.19 15.88,-34.961c-0.34,-8.626 -20.29,-17.115 -27.16,-19.835c-23.29,-9.228 -47.23,-11.214 -72,-11.204c-7.69,0.003 -26.27,5.813 -32.68,1.933c-3.29,-1.987 -3.17,-8.585 -4.05,-11.933c-2.63,-9.955 -5.94,-19.77 -10.52,-29c-14.39,-28.983 -42.21,-63.607 -74.75,-73m-693.811,89.742c-6.461,2.865 -4.189,14.61 -4.189,20.258l0,51c0,5.557 -1.8,15.084 1.742,19.772c4.291,5.678 16.994,3.228 23.258,3.228l54,0c6.166,0 16.374,1.927 21.891,-1.179c6.164,-3.47 4.109,-13.926 4.109,-19.821l0,-52c0,-5.615 1.838,-15.276 -2.434,-19.682c-4.605,-4.75 -17.455,-2.318 -23.566,-2.318l-52,0c-6.524,0 -16.776,-1.934 -22.811,0.742m121.87,0.286c-6.207,3.399 -4.059,14.089 -4.059,19.972l0,51c0,5.557 -1.8,15.084 1.742,19.772c4.291,5.678 16.994,3.228 23.258,3.228l54,0c6.166,0 16.374,1.927 21.891,-1.179c6.164,-3.47 4.109,-13.926 4.109,-19.821l0,-52c0,-5.489 1.92,-15.444 -2.318,-19.682c-4.616,-4.616 -16.656,-2.318 -22.682,-2.318l-54,0c-6.107,0 -16.468,-1.97 -21.941,1.028m124,0c-6.207,3.399 -4.059,14.089 -4.059,19.972l0,51c0,5.557 -1.8,15.084 1.742,19.772c4.291,5.678 16.994,3.228 23.258,3.228l54,0c6.166,0 16.374,1.927 21.891,-1.179c6.164,-3.47 4.109,-13.926 4.109,-19.821l0,-52c0,-5.489 1.92,-15.444 -2.318,-19.682c-4.616,-4.616 -16.656,-2.318 -22.682,-2.318l-54,0c-6.107,0 -16.468,-1.97 -21.941,1.028m122.085,0c-5.934,3.465 -4.144,14.259 -4.144,19.972l0,51c0,5.91 -1.637,14.921 2.514,19.772c4.672,5.459 16.058,3.228 22.486,3.228l54,0c6.251,0 16.312,1.888 21.942,-1.179c6.603,-3.597 5.058,-13.568 5.058,-19.821l0,-52c0,-5.638 1.639,-15.044 -2.564,-19.566c-4.511,-4.854 -17.379,-2.434 -23.436,-2.434l-54,0c-5.939,0 -16.606,-2.038 -21.856,1.028m123.965,0c-6.161,3.468 -4.109,14.1 -4.109,19.972l0,51c0,5.557 -1.8,15.084 1.742,19.772c4.291,5.678 16.994,3.228 23.258,3.228l54,0c6.166,0 16.374,1.927 21.891,-1.179c6.324,-3.56 4.109,-14.77 4.109,-20.821l0,-50c0,-5.488 1.853,-15.229 -1.603,-19.852c-4.223,-5.648 -17.169,-3.148 -23.397,-3.148l-54,0c-6.033,0 -16.515,-1.998 -21.891,1.028m-612.109,697.972c-50.818,-43.97 -133.3737,-24.762 -166.5471,31c-25.1257,42.235 -17.77216,98.09 14.7169,134c11.2039,12.38 26.1144,22.58 41.8302,28.3c60.163,21.94 129.718,-10.01 148.279,-72.3c5.327,-17.88 4.721,-36.55 4.721,-55l0,-71l0,-81c0,-11.462 0.773,-24.694 -11.004,-30.95c-12.254,-6.51 -28.906,0.077 -31.528,13.95c-2.093,11.068 -0.468,23.751 -0.468,35l0,68m625,68c19.529,-9.236 38.024,-23.684 56,-35.667c9.691,-6.46 21.749,-12.015 29.891,-20.426c12.013,-12.41 2.508,-33.92 -13.891,-35.719c-14.122,-1.549 -28.995,12.554 -40,19.809c-30.477,20.092 -62.476,38.538 -92,60.003l0,-76l0,-57c0,-9.138 1.72,-20.312 -1.562,-29c-6.613,-17.504 -33.263,-17.504 -39.876,0c-2.78,7.359 -1.562,16.277 -1.562,24l0,44l0,153l0,54c0,9.95 -0.533,19.72 8.015,26.61c12.27,9.89 31.593,2.86 34.517,-12.61c4.411,-23.33 -5.243,-50.08 0.786,-72.96c1.29,-4.9 18.024,-17.34 23.243,-16.31c2.752,0.54 4.883,4.34 6.606,6.27l16.999,19c16.941,18.97 33.472,38.39 50.809,57c6.898,7.4 13.473,18.51 23.025,22.63c19.909,8.59 36.885,-13.96 26.637,-31.63c-7.453,-12.85 -20.575,-23.85 -30.352,-35c-18.795,-21.43 -37.159,-43.82 -57.285,-64m-458,-91.576c-27.395,3.599 -50.683,11.912 -70.961,31.665c-9.707,9.456 -18.271,21.433 -23.612,33.911c-33.444,78.14 29.54,168 115.573,157.71c17.555,-2.1 34.246,-7.49 49,-17.38c76.901,-51.56 61.856,-176.29 -30,-202.036c-12.494,-3.502 -27.066,-5.569 -40,-3.87m244,0c-19.868,2.61 -38.342,6.777 -55,18.731c-70.209,50.386 -62.456,161.435 19,196.555c14.304,6.17 29.553,8.29 45,8.29c14.346,0 28.614,-2.03 42,-7.45c16.837,-6.82 54.106,-30.09 30.895,-51.22c-17.397,-15.84 -35.807,7.07 -51.895,12.59c-30.696,10.53 -64.514,-3.56 -81.188,-30.92c-28.528,-46.81 12.118,-110.867 67.188,-103.711c9.904,1.287 19.494,4.994 28,10.175c10.932,6.658 21.607,16.884 34.999,8.541c16.787,-10.457 9.738,-30.024 -2.999,-39.769c-20.776,-15.896 -49.712,-25.265 -76,-21.812m355,133.576l127,0c13.69,0 36.35,4.34 46.47,-7.19c5.31,-6.04 4.53,-13.33 4.53,-20.81c-0.01,-17.845 -5.49,-35.714 -14.6,-51c-28.29,-47.457 -91.53,-68.605 -142.4,-45.688c-83.974,37.829 -89.746,161.288 -6,203.438c11.692,5.89 24.849,10.25 38,11.16c29.44,2.03 57.01,-3.54 81,-21.39c11.62,-8.65 22.13,-25.23 9.79,-38.42c-18.15,-19.39 -41.87,10.42 -59.79,15.47c-37.054,10.44 -68.796,-13.48 -84,-45.57m243,-111c-1.67,-21.039 -30.32,-33.723 -41.08,-11c-5.98,12.622 -1.92,34.21 -1.92,48l0,112c0,14.57 -5.1,39.49 9.04,48.87c13.33,8.84 30.63,0.06 33.34,-14.87c7.87,-43.32 -14.05,-96.95 14.38,-135c14.35,-19.204 39.28,-30.656 63.24,-27.714c10.43,1.282 21.51,8.137 32,6.388c13.24,-2.206 19.47,-15.188 16.61,-27.674c-3.13,-13.604 -21.92,-18.149 -33.61,-20.08c-34.35,-5.677 -62.92,3.153 -92,21.08z"/>
  <path id="svg_4" fill="#2597ed" d="m1235,1095.56c-18.8,4.9 -10.94,33.48 8,28.91c19.21,-4.64 11.11,-33.9 -8,-28.91z"/>
  <path id="svg_5" fill="#010101" d="m1246,1119l0,-1l-9,-6l0,6l-4,0c0,-3.87 -1.21,-10.33 1.03,-13.68c2.28,-3.42 9.04,-2.71 10.82,0.91c1.38,2.82 0.63,8.47 1.15,11.77c9.36,-6.41 -0.97,-21.94 -10.98,-16.82c-13.94,7.12 -2.18,23.61 10.98,18.82m-8,-10l3,-3l-3,3z"/>
 </g>
</svg>